<?xml version="1.0" encoding="UTF-8"?>
<svg version="1.1" viewBox="0 0 2048 992" width="400" height="400" xmlns="http://www.w3.org/2000/svg">
<path transform="translate(0)" d="m0 0h2048v992h-2048z" fill="#FCFCFC"/>
<path transform="translate(1031,347)" d="m0 0h14l21 2 21 4 27 9 21 10 19 12 16 13 13 13 7 8 8 9 9 13 8 14 9 19 7 22 4 19 2 19v27l-3 24-6 24-8 21-11 21-13 19 6 7 16 16v2l8-2h22l2-27 4-17 8-17 12-21 13-23 12-21 13-23 16-28 15-27 14-24 14-25 13-23 15-26 9-15 6-5 11-4 24-3 11-1 43 1 24 3 12 5 4 4v287l46 1 6 9 3 9 1 8v21l-2 15-1 5h235v4l-528 1 123 123 8 12 4 12 1 7v9l-3 14-6 11-9 10-8 7-10 5-13 3h-11l-15-4-11-6-16-15-130-130-7-8-7-7-6-10-4-13-1-13 2-8-78 1-26 7-20 3-11 1h-26l-24-3-32-8-943-1v-4l470-1-2-15v-41l3-19 5-14 13-24 14-24 12-22 15-26 39-69 15-26 11-20 12-21 12-22 7-11 7-6 13-4 20-2h49l24 2 12 3 8 5 2 2v288h46l6 7 3 9 1 5v33l-3 13h118v-2l-9-3-16-9-15-11-14-12-14-14-9-11-10-14-10-18-9-21-6-20-4-20-2-21 1-25 3-21 5-20 8-22 10-20 10-15 9-11 9-10 14-14 11-9 18-12 19-10 15-6 23-7 25-4z" fill="#27B6EE"/>
<path transform="translate(1025,368)" d="m0 0h22l23 3 21 5 21 8 16 8 18 12 13 11 16 16 10 13 8 13 8 15 9 25 5 24 2 18v18l-3 22-4 17-6 17-10 21-10 16-13 16-4 2 1-5-2 1v7l-12 12-16 12-15 9-21 10-23 7-17 3-9 1h-31l-21-3-19-5-16-6-16-8-15-9-11-9-10-9-12-12-10-13-10-16-8-16-8-21-5-22-2-17v-25l4-27 7-23 9-20 10-17 10-13 9-10 13-13 13-10 19-12 17-8 21-7 25-5z" fill="#BCE2F5"/>
<path transform="translate(1459,362)" d="m0 0 44 1 24 3 12 5 4 4v287l46 1 6 9 3 9 1 8v21l-2 15-1 5h235v4h-529v-1l11-1-6-5-7-9-14-10-11-4-9-3-18-9 2-27 4-17 8-17 12-21 13-23 12-21 13-23 16-28 15-27 14-24 14-25 13-23 15-26 9-15 6-5 11-4 24-3z" fill="#26B5EE"/>
<path transform="translate(1605,233)" d="m0 0h42l1 27 8 1 1-6 8-19 24 8 15 6-1 7-6 16v4l7 3 2-4 11-13 3-3 4 2 13 11 11 9 5 5-12 14-4 5 1 5 3 2 22-12 4 2 12 22 6 10-1 4-11 6-10 7 1 6 15-2 10-1v-7h3l4 27 3 16v5l-8 2v7h-2v-7l-17 4 2 7 22 4 3 1-2 16-5 26-11-1-10-2h-6l-1 7 18 10 3 2-1 5-14 25-5 8-5-2-17-10h-4l-2 3 1 4 11 13 4 6-9 8-22 18h-3l-9-11-6-7-8 1 8 24-1 4-35 13h-3l-9-22-2-2h-7v28h-42l-1-27-7-1-6 13-4 11-6-1-27-10-7-3 3-11 5-16-9-1-3 3-1-160-5-4-10-4-24-3-43-1-1-1v-6h9l20 2v-7l-22-13 1-4 9-16 9-15 1-2 6 2 18 10 4-3-1-6-10-11-4-5 2-4 14-12 13-11 4-1 13 15 4 4 5-2-1-8-6-16v-3l27-10 9-3h4l8 20 1 3 8 1v-19z" fill="#BCE2F5"/>
<path transform="translate(287,439)" d="m0 0h5l1 5h9v-4h8l1 6v22h6l3-9 5-11 7 1 26 10-3 10-4 13 5 1 7-7 7-8h3l13 11 12 10-6 8-7 9 1 4 6-1 16-8 6 10 11 20-3 3-13 8h-2v7l19-3h5l5 29v6l-20 5h-2l1 5 19 4 2 1-1 12-4 21-1 1-13-1-10-1v6l18 10-2 5-13 23-2 3-6-2-13-7-4 2 2 5 9 11 2 3-11 10-11 9-3 3-4-1-9-11-3-3-5 1 2 9 4 11v3l-25 9-4 1 33 1v1h-319v-1l212-1-22-8-5-2 1-7 4-12v-4l-6-1-2 4-10 11-5-2-11-10-11-9 1-4 10-12 1-5-4-1-17 9-4-4-14-24v-3l17-11v-4h-9l-14 1-3-13-3-17v-4l21-5 1-5-22-5 1-9 4-23 1-3 23 3v-6l-14-9-4-2 7-14 10-16h3l17 9 3-2-1-5-11-13 2-4 11-10 11-9h4l12 14 3 1 2-1v-6l-5-13v-4l14-6 18-6 4 8 4 11v2h7l-1-24-6-1v-3h8v4h9l1-4z" fill="#BDE3F6"/>
<path transform="translate(1868,480)" d="m0 0 4 1v20h6l3-9 3-8 8 1 21 8 1 3-6 18h6l2-4 8-9 4 1 11 9 10 8-2 4-9 11v4l6-1 14-7 10 17 5 10-16 10v4l13-1 7-1 2 4 4 26-9 3-10 3-1 4 17 3 3 1-2 15-3 14-1 1-11-1-9-1v5l16 9-2 5-11 19-2 3-4-1-11-6-5-1 1 6 10 12-5 5-10 9-7 6h-3l-9-11-2-2-4 1 1 7 4 10v2l-20 8-9 2-4-8-4-9h-4l-1 20h-31l-1-2-1-18h-3l-8 17 2 1h-215v-1l207-1-19-7-4-2 1-5 3-9 1-6-5 1-11 12-4-2-13-11-7-6 2-4 8-10v-4l-6 1-11 6-3-1-11-19-3-5 1-3 14-8 1-5-16 2h-5l-4-20-1-10 18-4v-6l-18-1v-7l5-25 20 1 1-5-5-2-11-7 2-6 10-17 4-4 14 8 5-1-1-4-10-12 2-4 14-12 8-5 4 2 2 5 6 7 4-1-1-6-4-11v-3l27-10 3 1 6 16 5 1v-15l1-5z" fill="#BCE2F5"/>
<path transform="translate(1226,692)" d="m0 0h21l10 3 13 7 14 4 11 7 9 8 5 7 4 3 4 2h-15l7 8 117 117 8 12 4 12 1 7v9l-3 14-6 11-9 10-8 7-10 5-13 3h-11l-15-4-11-6-16-15-130-130-7-8-7-7-6-10-4-13-1-13 2-9 2-5 2-8 6-9 10-10 8-5z" fill="#07577F"/>
<path transform="translate(843,218)" d="m0 0 3 3 12 36 18 52v5l-14 5h-4l-1-6-14 3-87 24-42 12-9 3v8l-28 2-15 3-8 4-6 7-6 11-2-1-5 7h-1l-1-8-14 3-5-1-3-10-18 4-18 5-2 4-2-1v-2l-50 14-28 8-1 7h-3v-7l-23 7-32 9h-3l-6-15-3-10 39-16 28-11 34-14 47-19 1-9h3l1 7 20-8 1-9 14-7 41-17 29-12h3l1 6 32-13 86-35 24-10 2-1-2-11z" fill="#BCE2F5"/>
<path transform="translate(1449,448)" d="m0 0h2v214l-1 1h-123l1-5 15-27 16-27 15-27 14-24 32-56 14-24 13-23z" fill="#FAFCFC"/>
<path transform="translate(692,448)" d="m0 0h1v215h-106l-17-1 2-5 10-19 13-22 11-19 8-14 7-13 13-23 14-25 14-24 15-26 9-15z" fill="#FCFCFC"/>
<path transform="translate(1253,694)" d="m0 0 6 2 11 6 14 4 11 7 9 8 5 7 4 3 4 2h-15l7 8 117 117 8 12 1 5-6 7-10 6-9 3-6 1h-8l-11-3-10-5-15-14-108-108-9-12-4-11-1-5v-8l3-12 5-10 7-8z" fill="#1F8DAF"/>
<path transform="translate(1115,183)" d="m0 0 14 6 15 10 12 11 9 12 8 16 4 11 2 10v15l-4 12-7 12-9 9-11 7-11 6-1 2-11-1-1 1-7-1-4-1-3 2-5-1-1-3-24-9-6-2-3 1-1-2h-7l-19 7-4-2-10-18-5-8 2-4 15-12 14-7h9l13 4 21 8 8 2h9l10-4 5-5 4-8v-8l-4-10-9-10-18-14-2-3v-7l8-16z" fill="#BDE3F6"/>
<path transform="translate(1226,692)" d="m0 0h21l6 2v3l-8 10-5 13-1 6v8l4 14 7 10 11 12 108 108 11 8 11 4 5 1h8l12-3 10-5 6-5 2-3h2l3 14v9l-1 7-4 2-10 7-11 5-7 2-11 1-16-3-11-6-8-6v-2l-4-2-7-7v-2l-4-2v-2l-4-2v-2h-2v-2l-4-2-19-19v-2l-4-2-40-40v-2l-4-2-15-15v-2h-2v-2l-4-2-21-21-9-11-5-8-4-15v-9l4-16 6-11 6-9-2-1z" fill="#0F7094"/>
<path transform="translate(1037,407)" d="m0 0h7l13 4 9 8 5 10 1 5v8l-4 11-6 8-7 5-11 3-40 6h-15l-12-6-8-9-3-9v-13l4-10 7-8 10-5 15-3z" fill="#FDFDFD"/>
<path transform="translate(156,334)" d="m0 0h17l15 3 15 6 9 7 9 9 6 11 4 16v7l-5 17-3 7h2l2 9h-4l-1-6-8 11-9 9-11 7-13 6-30 9-12 4-11 6-7 9-14 23-2 2-5-1-6-3 1-5 11-22 8-12 5-4 13-6 33-10 16-7 11-7 8-8 8-14 3-9v-17l-3-9-7-9-9-7-11-5-9-2h-22l-20 5-4-1-2-6v-5l20-6z" fill="#BCE2F5"/>
<path transform="translate(1204,432)" d="m0 0 1 2 4 2 3 2v2h2l7 10 12 22 7 14 6 18 4 13 3 19v40l-2 17-4 18-3 10-4 9-5 13-7 12-9 14-7 13v2l10 10h-4l-7-8-16-16 4-7 10-15 11-21 7-19 6-24 3-24v-27l-3-24-5-21-7-20-11-22-7-10z" fill="#CCD1D4"/>
<path transform="translate(285,555)" d="m0 0h15l10 4 10 9 5 10 1 4v13l-5 12-6 7-10 6-7 2h-10l-12-4-9-7-7-14-1-5v-8l3-10 6-9 7-6z" fill="#FDFDFD"/>
<path transform="translate(318,259)" d="m0 0h15l12 5 10 9 5 9 4 14 4 17 3 5 8 7 3 2-2 5-6 10-2 1-16-8-5-4-4-10-5-25-4-6-5-4-6-2h-6l-8 5-4 5-4 9-2 19-4 2h-15v-22l4-15 9-14 8-8 10-5z" fill="#BDE3F6"/>
<path transform="translate(610,591)" d="m0 0 2 2-1 7-12 35-1 4h94v-29h1v53h-106l-17-1 2-5 10-19 13-22 11-19z" fill="#BDE3F6"/>
<path transform="translate(1836,521)" d="m0 0h5v39l-1 2-10 5-10 9-7 11-2 4h-40l1-8 5-13 6-12 10-13 11-9 13-8 16-6z" fill="#FBFCFC"/>
<path transform="translate(1771,622)" d="m0 0h40l9 14 7 7 11 7 3 2v40l-7-1-20-8-12-8-9-8-10-13-8-15-4-12z" fill="#FDFDFD"/>
<path transform="translate(1872,521)" d="m0 0 7 1 16 6 12 7 11 9 9 10 8 14 5 12 2 10-3 1h-37l-9-15-9-8-12-7z" fill="#FDFDFD"/>
<path transform="translate(1902,622)" d="m0 0h40l-1 7-5 13-7 13-9 11-7 7-10 7-16 8-11 4h-4v-40l11-7 9-8z" fill="#FDFDFD"/>
<path transform="translate(1918,232)" d="m0 0h27l11 3 12 6 10 9 6 8 5 13v13l-5 12-6 10-11 11-16 8-18 4-27 4-9 4-8 7-9 10-5 6-6-2-2-1 1-5 12-17 8-8 10-4 36-6 16-5 9-6 8-9 6-12 1-5v-7l-3-9-4-6-9-8-10-5-9-2h-28l-1-1v-8z" fill="#BDE3F6"/>
<path transform="translate(978,297)" d="m0 0h8l11 4 6 5 6 10 2 7v7l-5 12-9 8 1 2-12 3-10-2-7-3-7-6-6-10-1-3v-13l5-10 8-7z" fill="#BDE3F6"/>
<path transform="translate(273,493)" d="m0 0h4v35l-14 6-11 8-2 2-4-1-25-14-2-1 1-4 12-12 15-10 15-6z" fill="#FDFDFD"/>
<path transform="translate(247,633)" d="m0 0 4 1 14 9 12 6v35l-7-1-19-7-11-6-13-10-8-8 2-4z" fill="#FDFDFD"/>
<path transform="translate(1850,583)" d="m0 0h12l12 6 5 8 1 3v11l-4 9-9 8-6 2h-10l-10-5-6-7-3-9 1-10 5-8 7-6z" fill="#FDFDFD"/>
<path transform="translate(381,555)" d="m0 0 3 1 4 15 1 8v19l-3 16-2 8-6-2-17-10-8-5v-33l9-6z" fill="#FDFDFD"/>
<path transform="translate(309,493)" d="m0 0 7 1 15 5 17 9 13 11 5 5-1 4-16 9-11 7-4-2-11-7-14-7z" fill="#FDFDFD"/>
<path transform="translate(336,633)" d="m0 0 6 2 24 14-1 4-9 9-16 11-15 7-13 4h-3v-35l17-9z" fill="#FDFDFD"/>
<path transform="translate(202,555)" d="m0 0 16 8 14 8 1 3-1 4v27l-24 14-3 2-4-1-4-18v-29l4-15z" fill="#FDFDFD"/>
<path transform="translate(1569,355)" d="m0 0 4 2 42 42v2l-60 1-5-2 2-14 5-13 6-11z" fill="#FDFDFD"/>
<path transform="translate(1551,409)" d="m0 0h65l-6 7-39 39h-3l-9-14-5-11-3-11z" fill="#FDFDFD"/>
<path transform="translate(1620,416)" d="m0 0h2v62l-1 2-12-1-15-5-11-6-8-6 1-3 8-7 7-7 1-2h2l2-4 10-10 8-7z" fill="#FDFDFD"/>
<path transform="translate(1615,330)" d="m0 0h7v46l-1 18-4-2-11-12-25-25-3-2v-2h-2l1-4 10-7 12-6z" fill="#FDFDFD"/>
<path transform="translate(1630,416)" d="m0 0 6 4 40 40-1 3-14 9-12 5-12 3h-7z" fill="#FDFDFD"/>
<path transform="translate(1681,355)" d="m0 0 6 5 8 14 5 16 1 11h-65l6-7z" fill="#FDFDFD"/>
<path transform="translate(1636,409)" d="m0 0h65l-1 11-5 15-7 13-5 7-4-2-35-35-8-7z" fill="#FDFDFD"/>
<path transform="translate(1630,330)" d="m0 0 10 1 14 4 15 8 7 5-2 4-43 43h-2z" fill="#FDFDFD"/>
<path transform="translate(1432,864)" d="m0 0 5 2 5 4 9 14 2 7 1 8v9l-2 10-5 12-9 10-8 6-12 6-12 2h-11l-6-3-1-1-8-1v-1l15-2 10-3 9-5 10-9 7-9 5-11 2-11v-9l-3-14-4-8z" fill="#CCD1D4"/>
<path transform="translate(1052,654)" d="m0 0h8l8 3 5 6 1 9-4 8-6 4-14 3-7 1h-12l-7-4-3-5-1-8 4-8 5-4 16-4z" fill="#FDFDFD"/>
<path transform="translate(1637,277)" d="m0 0 12 1 22 6 15 7 11 6 12 9 13 12 9 12-4 4-5 3-4-1-11-12-7-7-13-9-15-8-18-6-17-4z" fill="#FDFDFD"/>
<path transform="translate(1740,352)" d="m0 0 4 1 6 16 3 12 2 18v12l-2 18-4 15-5 15-5-1-8-5 3-9 5-19 1-6v-25l-3-17-6-19z" fill="#FDFDFD"/>
<path transform="translate(1607,277)" d="m0 0h7v13l-24 6-13 5-15 8-14 11-11 11-5 7-12-6 2-4 8-10 10-10 13-10 16-9 14-6z" fill="#FDFDFD"/>
<path transform="translate(1719,473)" d="m0 0 5 2 7 4-2 4-12 13-9 9-14 10-15 8-17 6-16 4-8 1-1-1v-12l7-2 22-6 19-9 11-8 13-11 9-11z" fill="#FDFDFD"/>
<path transform="translate(1205,691)" d="m0 0h5v2l5 1-4 4-9 6-9 9-8 15-2 2h-65l3-3 16-8 13-8 8-6 4 1 9 9 2 1 2-5 5-1 3 1-1-3 10-4 1-3 4-3 4-1z" fill="#CDD2D5"/>
<path transform="translate(1543,488)" d="m0 0 4 2 15 11 19 10 15 5 17 4 1 1v13l-13-2-18-5-13-5-15-8-12-8z" fill="#FDFDFD"/>
<path transform="translate(60,559)" d="m0 0h9l6 3 6 7 2 5v9l-6 8-7 5h-10l-8-5-6-9v-9l3-6 8-7z" fill="#BDE3F6"/>
<path transform="translate(1106,734)" d="m0 0h42v1l-13 1-5 4-19 6-25 5-19 2h-34l-17-3-6-2v-2l-4-2 17 1h26l25-3 22-5z" fill="#CCD1D4"/>
<path transform="translate(409,340)" d="m0 0h7l6 4 5 6 1 2v9l-6 8-7 4-8-1-8-7-3-6 1-9 7-8z" fill="#BDE3F6"/>
<path transform="translate(1830,397)" d="m0 0h7l6 4 4 5 1 3v7l-6 8-5 3h-6l-8-5-4-6v-9l4-6 4-3z" fill="#BDE3F6"/>
<path transform="translate(1205,691)" d="m0 0h5v2l5 1-4 4-9 6-9 9-8 15v1h-34l4-2 13-6 1-5h4l2-5 5-1 3 1-1-3 10-4 1-3 4-3 4-1z" fill="#BDE3F6"/>
<path transform="translate(692,448)" d="m0 0h1v139h-1l-1-93-4-9-5-17-1-2 10-17z" fill="#BDE3F6"/>
<path transform="translate(604,658)" d="m0 0h88v4h-101l4-3z" fill="#FDFDFD"/>
<path transform="translate(1186,724)" d="m0 0 1 4-2 5-1 1h-36l-38-1 3-2 2-1 68-1z" fill="#25B2EA"/>
<path transform="translate(311,709)" d="m0 0h6l5 10 4 10h-16v-18z" fill="#FDFDFD"/>
<path transform="translate(268,709)" d="m0 0h6l1 2v18h-14l1-6z" fill="#FDFDFD"/>
<path transform="translate(1169,716)" d="m0 0 4 2 8 8 2 1v2h-32l4-2 13-6z" fill="#FDFDFD"/>
<path transform="translate(1508,352)" d="m0 0 5 1 6 4v7h-16l1-4z" fill="#FAFCFC"/>
<path transform="translate(1115,730)" d="m0 0h36l-2 1v2h-39l3-2z" fill="#1F8DAF"/>
<path transform="translate(1221,624)" d="m0 0 2 1-5 12-11 21h-2l-2 6h-2l-2 4-2 2v-4l12-18 11-21z" fill="#EAF3F8"/>
<path transform="translate(1124,726)" d="m0 0 4 1h-2v2h57v1h-65l3-3z" fill="#C7E6F6"/>
<path transform="translate(1191,675)" d="m0 0h2l1 5h-2v4h-3v2l-3 1-2-1 2-6z" fill="#B8E1F5"/>
<path transform="translate(486,440)" d="m0 0h9v3h-3v6l-1 2h-2v-8h-3z" fill="#A7DCF5"/>
<path transform="translate(571,435)" d="m0 0h3l2 4h2l-1 5h-6l-1-1v-6z" fill="#B9E2F5"/>
<path transform="translate(1166,711)" d="m0 0 5 5h-2v5h-4l-1-5z" fill="#BDE3F6"/>
<path transform="translate(554,439)" d="m0 0h8v5h-8z" fill="#B9E1F5"/>
<path transform="translate(588,439)" d="m0 0h7l1 3-1 2h-7l-1-3z" fill="#BDE3F6"/>
<path transform="translate(538,439)" d="m0 0h7v5h-7l-1-4z" fill="#BEE3F6"/>
<path transform="translate(1379,945)" d="m0 0 16 1v1l-5 1h-11l-5-1v-1z" fill="#1783A9"/>
<path transform="translate(1157,734)" d="m0 0h27l-1 2h-15v2h-3v-3h-8z" fill="#BDE3F6"/>
<path transform="translate(236,439)" d="m0 0h6l1 4-5 1-3-1z" fill="#B4E0F5"/>
<path transform="translate(256,439)" d="m0 0 4 1v3l-3 1-6-1 1-3z" fill="#AEDEF5"/>
<path transform="translate(340,587)" d="m0 0h4v6l-4 1z" fill="#FDFDFD"/>
<path transform="translate(283,537)" d="m0 0h5v4l-5 1-1-4z" fill="#FDFDFD"/>
<path transform="translate(571,418)" d="m0 0h3v8l-4-1z" fill="#B1DFF5"/>
<path transform="translate(1165,377)" d="m0 0h3v8l-3 1z" fill="#8ED5F3"/>
</svg>
